<svg version="1.2" width="177mm" height="200mm" viewBox="0 0 17700 20000" preserveAspectRatio="xMidYMid" fill-rule="evenodd" clip-path="url(#a)" xmlns="http://www.w3.org/2000/svg"><defs class="ClipPathGroup"><clipPath id="a"><rect width="17700" height="20000"/></clipPath></defs><defs class="EmbeddedBulletChars"><path d="M.283-.557l.285.278-.285.279-.285-.279.285-.278z"/><path d="M.004-.551h.551v.551h-.551v-.551z"/><path d="M.085 0l.209-.361-.209-.362.626.362-.626.361zm.578-.361l-.512-.296.171.296h.341z"/><path d="M.984-.361l-.361.361h-.273l.265-.265h-.53v-.192h.53l-.265-.266h.272l.362.362z"/><path d="M0 .001l-.012-.019.186-.259-.069-.189.02-.019.017.002.032-.012.013.006.054.123.137-.147.031.012.012-.012.03.021-.074.108-.086.098.088.176-.031.041.008.01-.027.021-.105-.149-.143.223-.045.025-.031-.025-.005-.021.001-.015z"/><path d="M.139.016c-.05 0-.085-.031-.103-.092l-.016-.154.02-.098.077-.052.052.046.011.086.029.048.359-.345.032-.008.031.022v.06l-.015.041-.4.407-.077.039z"/><path d="M.397 0c-.088 0-.158-.026-.21-.079-.052-.052-.078-.122-.078-.21s.026-.158.078-.21c.052-.052.122-.079.21-.079.087 0 .158.026.211.079.053.052.079.123.079.21 0 .088-.026.158-.079.21-.053.052-.124.079-.211.079z"/><path d="M.169-.223l-.093-.038-.04-.092.04-.092.093-.038.09.039.038.091-.037.092-.091.038z"/><path d="M-.002-.224h.556v-.072h-.556v.072z"/></defs><g class="Page" clip-path="url(#a)"><g stroke="#000" fill="none" class="com.sun.star.drawing.CustomShape"><path d="M303 15930c-63-235 232-457 526-457 93-2 189 21 268 55 76-106 216-171 373-171 105 3 216 35 295 92 56-94 176-149 305-149 109 0 208 40 271 102 72-64 181-102 294-102 184 0 340 99 373 238 178 39 307 165 307 309 0 44-9 86-36 127 76 70 122 157 122 246 0 202-204 371-465 401 0 192-202 344-453 344-87 0-169-19-241-54-66 170-276 290-511 290-174 0-340-72-439-184-93 43-44 68-310 68-219 0-420-89-526-233-252-4-381-118-381-262 0-67 33-128 93-178-109-42-168-126-168-222 0-135 132-245 303-260zM303 15930c4 22 18 46 26 67"/><path d="M0 15300zM3401 17201zM1097 15528c36 17 80 40 110 63"/><path d="M0 15300zM3401 17201zM1765 15449c-13 19-21 41-29 62"/><path d="M0 15300zM3401 17201zM2341 15402c-24 21-36 49-52 74"/><path d="M0 15300zM3401 17201zM3008 15538c4 16 19 51 13 59"/><path d="M0 15300zM3401 17201zM3279 15974c-27 45-63 84-113 117"/><path d="M0 15300zM3401 17201zM2938 16621c12-72-60-248-262-314"/><path d="M0 15300zM3401 17201zM2242 16911c12-29 17-55 20-84"/><path d="M0 15300zM3401 17201zM1294 17017c-25-23-41-50-57-77"/><path d="M0 15300zM3401 17201zM456 16852c30-4 60-9 88-17"/><path d="M0 15300zM3401 17201zM168 16412c52 23 112 43 198 35"/><path d="M0 15300zM3401 17201z"/></g><g class="com.sun.star.drawing.CustomShape"><path fill="#729fcf" d="M12200 7900h-1500v-3000h3000v3000h-1500z"/><path stroke="#3465af" d="M12200 7900h-1500v-3000h3000v3000h-1500z" fill="none"/></g><g class="com.sun.star.drawing.CustomShape"><path fill="#e6e6ff" d="M11133 5400c-167 0-333 166-333 333v1334c0 167 166 334 333 334h2134c167 0 334-167 334-334v-1334c0-167-167-333-334-333h-2134zm-333 0zm2801 2001z"/><path stroke="#3465af" d="M11133 5400c-167 0-333 166-333 333v1334c0 167 166 334 333 334h2134c167 0 334-167 334-334v-1334c0-167-167-333-334-333h-2134z" fill="none"/><path stroke="#3465af" d="M10800 5400z" fill="none"/><path stroke="#3465af" d="M13601 7401z" fill="none"/></g><g class="com.sun.star.drawing.CustomShape"><path fill="#e6e6ff" d="M11201 6100h598l202 300-202 301h-598l-201-301 201-300zm-201 0zm1001 601z"/><path stroke="#3465af" d="M11201 6100h598l202 300-202 301h-598l-201-301 201-300z" fill="none"/><path stroke="#3465af" d="M11000 6100z" fill="none"/><path stroke="#3465af" d="M12001 6701z" fill="none"/></g><g class="com.sun.star.drawing.CustomShape"><path fill="#729fcf" d="M12200 7700h-700v-600h1400v600h-700z"/><path stroke="#3465af" d="M12200 7700h-700v-600h1400v600h-700z" fill="none"/><text class="TextShape"><tspan class="TextParagraph" font-family="Arial, sans-serif" font-size="423" font-weight="400"><tspan class="TextPosition" x="11717" y="7546"><tspan>IPVS</tspan></tspan></tspan></text></g><g class="com.sun.star.drawing.LineShape"><path stroke="#000" d="M11975 6075l28-46" fill="none"/><path stroke="#000" d="M12030 5984l27-46" fill="none"/><path stroke="#000" d="M12084 5893l28-46" fill="none"/><path stroke="#000" d="M12139 5802l27-46" fill="none"/><path stroke="#000" d="M12194 5710l6-10" fill="none"/><path d="M11900 6200l168-85-172-103 4 188z"/></g><g class="com.sun.star.drawing.LineShape"><path stroke="#000" d="M12125 6975l-28-46" fill="none"/><path stroke="#000" d="M12070 6884l-27-46" fill="none"/><path stroke="#000" d="M12016 6793l-28-46" fill="none"/><path stroke="#000" d="M11961 6702l-27-46" fill="none"/><path stroke="#000" d="M11906 6610l-6-10" fill="none"/><path d="M12200 7100l4-188-172 103 168 85z"/></g><g class="com.sun.star.drawing.CustomShape"><path fill="#ffc" d="M8968 630c-56-235 204-457 464-457 82-2 166 21 236 55 67-106 190-171 329-171 92 3 190 35 260 92 50-94 156-149 269-149 96 0 184 40 239 102 64-64 160-102 260-102 163 0 300 99 330 238 157 39 270 165 270 309 0 44-8 86-31 127 66 70 107 157 107 246 0 202-180 371-410 401 0 192-178 344-400 344-77 0-149-19-213-54-58 170-243 290-450 290-154 0-300-72-388-184-82 43-39 68-274 68-193 0-371-89-464-233-222-4-336-118-336-262 0-67 29-128 82-178-96-42-148-126-148-222 0-135 116-245 268-260zm-268-630zm3001 1901z"/><path stroke="#3465af" d="M8968 630c-56-235 204-457 464-457 82-2 166 21 236 55 67-106 190-171 329-171 92 3 190 35 260 92 50-94 156-149 269-149 96 0 184 40 239 102 64-64 160-102 260-102 163 0 300 99 330 238 157 39 270 165 270 309 0 44-8 86-31 127 66 70 107 157 107 246 0 202-180 371-410 401 0 192-178 344-400 344-77 0-149-19-213-54-58 170-243 290-450 290-154 0-300-72-388-184-82 43-39 68-274 68-193 0-371-89-464-233-222-4-336-118-336-262 0-67 29-128 82-178-96-42-148-126-148-222 0-135 116-245 268-260z" fill="none"/><path stroke="#3465af" d="M8700 0z" fill="none"/><path stroke="#3465af" d="M11701 1901z" fill="none"/><path stroke="#3465af" d="M8968 630c2 22 15 46 22 67" fill="none"/><path stroke="#3465af" d="M8700 0z" fill="none"/><path stroke="#3465af" d="M11701 1901z" fill="none"/><path stroke="#3465af" d="M9668 228c32 17 71 40 97 63" fill="none"/><path stroke="#3465af" d="M8700 0z" fill="none"/><path stroke="#3465af" d="M11701 1901z" fill="none"/><path stroke="#3465af" d="M10257 149c-11 19-18 41-25 62" fill="none"/><path stroke="#3465af" d="M8700 0z" fill="none"/><path stroke="#3465af" d="M11701 1901z" fill="none"/><path stroke="#3465af" d="M10765 102c-20 21-31 49-45 74" fill="none"/><path stroke="#3465af" d="M8700 0z" fill="none"/><path stroke="#3465af" d="M11701 1901z" fill="none"/><path stroke="#3465af" d="M11355 238c2 16 16 51 11 59" fill="none"/><path stroke="#3465af" d="M8700 0z" fill="none"/><path stroke="#3465af" d="M11701 1901z" fill="none"/><path stroke="#3465af" d="M11594 674c-24 45-56 84-101 117" fill="none"/><path stroke="#3465af" d="M8700 0z" fill="none"/><path stroke="#3465af" d="M11701 1901z" fill="none"/><path stroke="#3465af" d="M11292 1321c11-72-53-248-231-314" fill="none"/><path stroke="#3465af" d="M8700 0z" fill="none"/><path stroke="#3465af" d="M11701 1901z" fill="none"/><path stroke="#3465af" d="M10678 1611c11-29 15-55 18-84" fill="none"/><path stroke="#3465af" d="M8700 0z" fill="none"/><path stroke="#3465af" d="M11701 1901z" fill="none"/><path stroke="#3465af" d="M9842 1717c-23-23-37-50-50-77" fill="none"/><path stroke="#3465af" d="M8700 0z" fill="none"/><path stroke="#3465af" d="M11701 1901z" fill="none"/><path stroke="#3465af" d="M9102 1552c27-4 53-9 78-17" fill="none"/><path stroke="#3465af" d="M8700 0z" fill="none"/><path stroke="#3465af" d="M11701 1901z" fill="none"/><path stroke="#3465af" d="M8848 1112c46 23 99 43 175 35" fill="none"/><path stroke="#3465af" d="M8700 0z" fill="none"/><path stroke="#3465af" d="M11701 1901z" fill="none"/><text class="TextShape"><tspan class="TextParagraph" font-family="Arial, sans-serif" font-size="423" font-weight="400"><tspan class="TextPosition" x="9451" y="1055"><tspan>Clients</tspan></tspan></tspan></text></g><g class="com.sun.star.drawing.CustomShape"><path fill="#729fcf" d="M5700 17388c0-244 750-488 1500-488s1501 244 1501 488v2124c0 244-751 489-1501 489s-1500-245-1500-489v-2124zm0-488zm3001 3101z"/><path stroke="#3465af" d="M5700 17388c0-244 750-488 1500-488s1501 244 1501 488v2124c0 244-751 489-1501 489s-1500-245-1500-489v-2124z" fill="none"/><path stroke="#3465af" d="M5700 16900z" fill="none"/><path stroke="#3465af" d="M8701 20001z" fill="none"/><path fill="#729fcf" d="M5700 17388c0 244 750 488 1500 488s1501-244 1501-488h-3001zm0-488zm3001 3101z"/><path stroke="#3465af" d="M5700 17388c0 244 750 488 1500 488s1501-244 1501-488" fill="none"/><path stroke="#3465af" d="M5700 16900z" fill="none"/><path stroke="#3465af" d="M8701 20001z" fill="none"/></g><g class="com.sun.star.drawing.CustomShape"><path fill="#729fcf" d="M8200 7900h-1500v-3000h3000v3000h-1500z"/><path stroke="#3465af" d="M8200 7900h-1500v-3000h3000v3000h-1500z" fill="none"/></g><g class="com.sun.star.drawing.CustomShape"><path fill="#729fcf" d="M10200 3800h-1500v-1000h3000v1000h-1500z"/><path stroke="#3465af" d="M10200 3800h-1500v-1000h3000v1000h-1500z" fill="none"/><text class="TextShape"><tspan class="TextParagraph" font-family="Arial, sans-serif" font-size="423" font-weight="400"><tspan class="TextPosition" x="8837" y="3446"><tspan>Load Balancer</tspan></tspan></tspan></text></g><g class="com.sun.star.drawing.CustomShape"><path fill="#729fcf" d="M4200 13900h-1500v-3000h3000v3000h-1500z"/><path stroke="#3465af" d="M4200 13900h-1500v-3000h3000v3000h-1500z" fill="none"/></g><g class="com.sun.star.drawing.CustomShape"><path fill="#729fcf" d="M11700 17388c0-244 750-488 1500-488s1501 244 1501 488v2124c0 244-751 489-1501 489s-1500-245-1500-489v-2124zm0-488zm3001 3101z"/><path stroke="#3465af" d="M11700 17388c0-244 750-488 1500-488s1501 244 1501 488v2124c0 244-751 489-1501 489s-1500-245-1500-489v-2124z" fill="none"/><path stroke="#3465af" d="M11700 16900z" fill="none"/><path stroke="#3465af" d="M14701 20001z" fill="none"/><path fill="#729fcf" d="M11700 17388c0 244 750 488 1500 488s1501-244 1501-488h-3001zm0-488zm3001 3101z"/><path stroke="#3465af" d="M11700 17388c0 244 750 488 1500 488s1501-244 1501-488" fill="none"/><path stroke="#3465af" d="M11700 16900z" fill="none"/><path stroke="#3465af" d="M14701 20001z" fill="none"/><text class="TextShape"><tspan class="TextParagraph" font-family="Arial, sans-serif" font-size="635" font-weight="400"><tspan class="TextPosition" x="12760" y="18915"><tspan>DB</tspan></tspan></tspan></text></g><text class="TextShape"><tspan class="TextParagraph" font-family="Arial, sans-serif" font-size="423" font-weight="400"><tspan class="TextPosition" x="6550" y="17506"><tspan>elliptics</tspan></tspan></tspan></text><g class="com.sun.star.drawing.CustomShape"><path fill="#e6e6ff" d="M3233 11200c-217 0-433 216-433 433v1734c0 217 216 434 433 434h1934c217 0 434-217 434-434v-1734c0-217-217-433-434-433h-1934zm-433 0zm2801 2601z"/><path stroke="#3465af" d="M3233 11200c-217 0-433 216-433 433v1734c0 217 216 434 433 434h1934c217 0 434-217 434-434v-1734c0-217-217-433-434-433h-1934z" fill="none"/><path stroke="#3465af" d="M2800 11200z" fill="none"/><path stroke="#3465af" d="M5601 13801z" fill="none"/></g><g class="com.sun.star.drawing.CustomShape"><path fill="#729fcf" d="M4200 12800h-1100v-600h2200v600h-1100z"/><path stroke="#3465af" d="M4200 12800h-1100v-600h2200v600h-1100z" fill="none"/><text class="TextShape"><tspan class="TextParagraph" font-family="Arial, sans-serif" font-size="423" font-weight="400"><tspan class="TextPosition" x="3648" y="12646"><tspan>app B</tspan></tspan></tspan></text></g><g class="com.sun.star.drawing.CustomShape"><path fill="#729fcf" d="M4200 13500h-1100v-600h2200v600h-1100z"/><path stroke="#3465af" d="M4200 13500h-1100v-600h2200v600h-1100z" fill="none"/><text class="TextShape"><tspan class="TextParagraph" font-family="Arial, sans-serif" font-size="423" font-weight="400"><tspan class="TextPosition" x="3635" y="13346"><tspan>app N</tspan></tspan></tspan></text></g><g class="com.sun.star.drawing.CustomShape"><path fill="#e6e6ff" d="M7133 5400c-167 0-333 166-333 333v1334c0 167 166 334 333 334h2134c167 0 334-167 334-334v-1334c0-167-167-333-334-333h-2134zm-333 0zm2801 2001z"/><path stroke="#3465af" d="M7133 5400c-167 0-333 166-333 333v1334c0 167 166 334 333 334h2134c167 0 334-167 334-334v-1334c0-167-167-333-334-333h-2134z" fill="none"/><path stroke="#3465af" d="M6800 5400z" fill="none"/><path stroke="#3465af" d="M9601 7401z" fill="none"/></g><g class="com.sun.star.drawing.CustomShape"><path fill="#e6e6ff" d="M7201 6100h598l202 300-202 301h-598l-201-301 201-300zm-201 0zm1001 601z"/><path stroke="#3465af" d="M7201 6100h598l202 300-202 301h-598l-201-301 201-300z" fill="none"/><path stroke="#3465af" d="M7000 6100z" fill="none"/><path stroke="#3465af" d="M8001 6701z" fill="none"/></g><g class="com.sun.star.drawing.CustomShape"><path fill="#729fcf" d="M8200 7700h-700v-600h1400v600h-700z"/><path stroke="#3465af" d="M8200 7700h-700v-600h1400v600h-700z" fill="none"/><text class="TextShape"><tspan class="TextParagraph" font-family="Arial, sans-serif" font-size="423" font-weight="400"><tspan class="TextPosition" x="7717" y="7546"><tspan>IPVS</tspan></tspan></tspan></text></g><g class="com.sun.star.drawing.CustomShape"><path fill="#729fcf" d="M8200 5700h-1100v-600h2200v600h-1100z"/><path stroke="#3465af" d="M8200 5700h-1100v-600h2200v600h-1100z" fill="none"/><text class="TextShape"><tspan class="TextParagraph" font-family="Arial, sans-serif" font-size="353" font-weight="400"><tspan class="TextPosition" x="7249" y="5521"><tspan>HTTP-proxy</tspan></tspan></tspan></text></g><g class="com.sun.star.drawing.CustomShape"><path fill="#729fcf" d="M4200 12100h-1100v-600h2200v600h-1100z"/><path stroke="#3465af" d="M4200 12100h-1100v-600h2200v600h-1100z" fill="none"/><text class="TextShape"><tspan class="TextParagraph" font-family="Arial, sans-serif" font-size="423" font-weight="400"><tspan class="TextPosition" x="3658" y="11946"><tspan>app A</tspan></tspan></tspan></text></g><g class="com.sun.star.drawing.CustomShape"><path fill="#3465a4" d="M7200 19100h-1100v-500h2200v500h-1100z"/><path stroke="#3465af" d="M7200 19100h-1100v-500h2200v500h-1100z" fill="none"/><text class="TextShape"><tspan class="TextParagraph" font-family="Arial, sans-serif" font-size="423" font-weight="400"><tspan class="TextPosition" x="6648" y="18996"><tspan fill="#fff">app B</tspan></tspan></tspan></text></g><g class="com.sun.star.drawing.CustomShape"><path fill="#3465a4" d="M7200 19700h-1100v-500h2200v500h-1100z"/><path stroke="#3465af" d="M7200 19700h-1100v-500h2200v500h-1100z" fill="none"/><text class="TextShape"><tspan class="TextParagraph" font-family="Arial, sans-serif" font-size="423" font-weight="400"><tspan class="TextPosition" x="6635" y="19596"><tspan fill="#fff">app N</tspan></tspan></tspan></text></g><g class="com.sun.star.drawing.CustomShape"><path fill="#3465a4" d="M7200 18500h-1100v-500h2200v500h-1100z"/><path stroke="#3465af" d="M7200 18500h-1100v-500h2200v500h-1100z" fill="none"/><text class="TextShape"><tspan class="TextParagraph" font-family="Arial, sans-serif" font-size="423" font-weight="400"><tspan class="TextPosition" x="6658" y="18396"><tspan fill="#fff">app A</tspan></tspan></tspan></text></g><g class="com.sun.star.drawing.LineShape"><path stroke="#000" d="M7975 6075l28-46" fill="none"/><path stroke="#000" d="M8030 5984l27-46" fill="none"/><path stroke="#000" d="M8084 5893l28-46" fill="none"/><path stroke="#000" d="M8139 5802l27-46" fill="none"/><path stroke="#000" d="M8194 5710l6-10" fill="none"/><path d="M7900 6200l168-85-172-103 4 188z"/></g><g class="com.sun.star.drawing.LineShape"><path stroke="#000" d="M8125 6975l-28-46" fill="none"/><path stroke="#000" d="M8070 6884l-27-46" fill="none"/><path stroke="#000" d="M8016 6793l-28-46" fill="none"/><path stroke="#000" d="M7961 6702l-27-46" fill="none"/><path stroke="#000" d="M7906 6610l-6-10" fill="none"/><path d="M8200 7100l4-188-172 103 168 85z"/></g><g class="com.sun.star.drawing.CustomShape"><path fill="#729fcf" d="M8200 13900h-1500v-3000h3000v3000h-1500z"/><path stroke="#3465af" d="M8200 13900h-1500v-3000h3000v3000h-1500z" fill="none"/></g><g class="com.sun.star.drawing.CustomShape"><path fill="#e6e6ff" d="M7233 11200c-217 0-433 216-433 433v1734c0 217 216 434 433 434h1934c217 0 434-217 434-434v-1734c0-217-217-433-434-433h-1934zm-433 0zm2801 2601z"/><path stroke="#3465af" d="M7233 11200c-217 0-433 216-433 433v1734c0 217 216 434 433 434h1934c217 0 434-217 434-434v-1734c0-217-217-433-434-433h-1934z" fill="none"/><path stroke="#3465af" d="M6800 11200z" fill="none"/><path stroke="#3465af" d="M9601 13801z" fill="none"/></g><g class="com.sun.star.drawing.CustomShape"><path fill="#729fcf" d="M8200 12800h-1100v-600h2200v600h-1100z"/><path stroke="#3465af" d="M8200 12800h-1100v-600h2200v600h-1100z" fill="none"/><text class="TextShape"><tspan class="TextParagraph" font-family="Arial, sans-serif" font-size="423" font-weight="400"><tspan class="TextPosition" x="7648" y="12646"><tspan>app B</tspan></tspan></tspan></text></g><g class="com.sun.star.drawing.CustomShape"><path fill="#729fcf" d="M8200 13500h-1100v-600h2200v600h-1100z"/><path stroke="#3465af" d="M8200 13500h-1100v-600h2200v600h-1100z" fill="none"/><text class="TextShape"><tspan class="TextParagraph" font-family="Arial, sans-serif" font-size="423" font-weight="400"><tspan class="TextPosition" x="7635" y="13346"><tspan>app N</tspan></tspan></tspan></text></g><g class="com.sun.star.drawing.CustomShape"><path fill="#729fcf" d="M8200 12100h-1100v-600h2200v600h-1100z"/><path stroke="#3465af" d="M8200 12100h-1100v-600h2200v600h-1100z" fill="none"/><text class="TextShape"><tspan class="TextParagraph" font-family="Arial, sans-serif" font-size="423" font-weight="400"><tspan class="TextPosition" x="7658" y="11946"><tspan>app A</tspan></tspan></tspan></text></g><g class="com.sun.star.drawing.CustomShape"><path fill="#729fcf" d="M12200 13900h-1500v-3000h3000v3000h-1500z"/><path stroke="#3465af" d="M12200 13900h-1500v-3000h3000v3000h-1500z" fill="none"/></g><g class="com.sun.star.drawing.CustomShape"><path fill="#e6e6ff" d="M11233 11200c-217 0-433 216-433 433v1734c0 217 216 434 433 434h1934c217 0 434-217 434-434v-1734c0-217-217-433-434-433h-1934zm-433 0zm2801 2601z"/><path stroke="#3465af" d="M11233 11200c-217 0-433 216-433 433v1734c0 217 216 434 433 434h1934c217 0 434-217 434-434v-1734c0-217-217-433-434-433h-1934z" fill="none"/><path stroke="#3465af" d="M10800 11200z" fill="none"/><path stroke="#3465af" d="M13601 13801z" fill="none"/></g><g class="com.sun.star.drawing.CustomShape"><path fill="#729fcf" d="M12200 12800h-1100v-600h2200v600h-1100z"/><path stroke="#3465af" d="M12200 12800h-1100v-600h2200v600h-1100z" fill="none"/><text class="TextShape"><tspan class="TextParagraph" font-family="Arial, sans-serif" font-size="423" font-weight="400"><tspan class="TextPosition" x="11648" y="12646"><tspan>app B</tspan></tspan></tspan></text></g><g class="com.sun.star.drawing.CustomShape"><path fill="#729fcf" d="M12200 13500h-1100v-600h2200v600h-1100z"/><path stroke="#3465af" d="M12200 13500h-1100v-600h2200v600h-1100z" fill="none"/><text class="TextShape"><tspan class="TextParagraph" font-family="Arial, sans-serif" font-size="423" font-weight="400"><tspan class="TextPosition" x="11635" y="13346"><tspan>app N</tspan></tspan></tspan></text></g><g class="com.sun.star.drawing.CustomShape"><path fill="#729fcf" d="M12200 12100h-1100v-600h2200v600h-1100z"/><path stroke="#3465af" d="M12200 12100h-1100v-600h2200v600h-1100z" fill="none"/><text class="TextShape"><tspan class="TextParagraph" font-family="Arial, sans-serif" font-size="423" font-weight="400"><tspan class="TextPosition" x="11658" y="11946"><tspan>app A</tspan></tspan></tspan></text></g><g class="com.sun.star.drawing.CustomShape"><path fill="#729fcf" d="M16200 13900h-1500v-3000h3000v3000h-1500z"/><path stroke="#3465af" d="M16200 13900h-1500v-3000h3000v3000h-1500z" fill="none"/></g><g class="com.sun.star.drawing.CustomShape"><path fill="#e6e6ff" d="M15233 11200c-217 0-433 216-433 433v1734c0 217 216 434 433 434h1934c217 0 434-217 434-434v-1734c0-217-217-433-434-433h-1934zm-433 0zm2801 2601z"/><path stroke="#3465af" d="M15233 11200c-217 0-433 216-433 433v1734c0 217 216 434 433 434h1934c217 0 434-217 434-434v-1734c0-217-217-433-434-433h-1934z" fill="none"/><path stroke="#3465af" d="M14800 11200z" fill="none"/><path stroke="#3465af" d="M17601 13801z" fill="none"/></g><g class="com.sun.star.drawing.CustomShape"><path fill="#729fcf" d="M16200 12800h-1100v-600h2200v600h-1100z"/><path stroke="#3465af" d="M16200 12800h-1100v-600h2200v600h-1100z" fill="none"/><text class="TextShape"><tspan class="TextParagraph" font-family="Arial, sans-serif" font-size="423" font-weight="400"><tspan class="TextPosition" x="15648" y="12646"><tspan>app B</tspan></tspan></tspan></text></g><g class="com.sun.star.drawing.CustomShape"><path fill="#729fcf" d="M16200 13500h-1100v-600h2200v600h-1100z"/><path stroke="#3465af" d="M16200 13500h-1100v-600h2200v600h-1100z" fill="none"/><text class="TextShape"><tspan class="TextParagraph" font-family="Arial, sans-serif" font-size="423" font-weight="400"><tspan class="TextPosition" x="15635" y="13346"><tspan>app N</tspan></tspan></tspan></text></g><g class="com.sun.star.drawing.CustomShape"><path fill="#729fcf" d="M16200 12100h-1100v-600h2200v600h-1100z"/><path stroke="#3465af" d="M16200 12100h-1100v-600h2200v600h-1100z" fill="none"/><text class="TextShape"><tspan class="TextParagraph" font-family="Arial, sans-serif" font-size="423" font-weight="400"><tspan class="TextPosition" x="15658" y="11946"><tspan>app A</tspan></tspan></tspan></text></g><g class="com.sun.star.drawing.CustomShape"><path fill="#729fcf" d="M12200 5700h-1100v-600h2200v600h-1100z"/><path stroke="#3465af" d="M12200 5700h-1100v-600h2200v600h-1100z" fill="none"/><text class="TextShape"><tspan class="TextParagraph" font-family="Arial, sans-serif" font-size="353" font-weight="400"><tspan class="TextPosition" x="11249" y="5521"><tspan>HTTP-proxy</tspan></tspan></tspan></text></g><g class="com.sun.star.drawing.OpenFreeHandShape"><path stroke="#f00" d="M5200 12400c1800-1100-10-5139 1200-7800 626-1376 2110-2607 2742-3173" fill="none"/><path fill="#f00" d="M9211 1504l2 34 187-338-359 142 32 7 33 13 30 19 28 25 22 30 15 33 10 35z"/></g><path stroke="#000" d="M8200 5100l2000-1300" fill="none" class="com.sun.star.drawing.LineShape"/><path stroke="#000" d="M10200 3800l2100 1300" fill="none" class="com.sun.star.drawing.LineShape"/><path stroke="#000" d="M10200 1900v900" fill="none" class="com.sun.star.drawing.LineShape"/><g class="com.sun.star.drawing.OpenFreeHandShape"><path stroke="#f00" d="M10200 1400c30 767-173 2025-1188 3422" fill="none"/><path fill="#f00" d="M8926 4765l-9-33-117 368 323-210-32-1-35-6-33-12-32-20-28-24-21-30-16-32z"/></g><g class="com.sun.star.drawing.OpenFreeHandShape"><path stroke="#936" d="M8800 5700v1800c0 1600-1700 1600-2400 3700-200 599-558 1000-917 1305" fill="none"/><path fill="#936" d="M5422 12420l2-34-224 314 372-101-31-10-30-17-29-22-24-28-19-32-11-35-6-35z"/></g><path stroke="#000" d="M4200 10900l4000-3200" fill="none" class="com.sun.star.drawing.LineShape"/><path stroke="#000" d="M8200 10900v-3200" fill="none" class="com.sun.star.drawing.LineShape"/><path stroke="#000" d="M12200 10900l-4000-3200" fill="none" class="com.sun.star.drawing.LineShape"/><path stroke="#000" d="M16200 10900l-8000-3200" fill="none" class="com.sun.star.drawing.LineShape"/><path stroke="#000" d="M4200 10900l8000-3200" fill="none" class="com.sun.star.drawing.LineShape"/><path stroke="#000" d="M8200 10900l4000-3200" fill="none" class="com.sun.star.drawing.LineShape"/><path stroke="#000" d="M12200 10900v-3200" fill="none" class="com.sun.star.drawing.LineShape"/><path stroke="#000" d="M16200 10900l-4000-3200" fill="none" class="com.sun.star.drawing.LineShape"/><path stroke="#000" d="M7200 16900l-3000-3100" fill="none" class="com.sun.star.drawing.LineShape"/><path stroke="#000" d="M8200 13800l-1000 3100" fill="none" class="com.sun.star.drawing.LineShape"/><path stroke="#000" d="M7200 16900l5000-3100" fill="none" class="com.sun.star.drawing.LineShape"/><path stroke="#000" d="M7200 16900l9000-3100" fill="none" class="com.sun.star.drawing.LineShape"/><path stroke="#000" d="M4200 13900l9000 3000" fill="none" class="com.sun.star.drawing.LineShape"/><path stroke="#000" d="M8200 13900l5000 3000" fill="none" class="com.sun.star.drawing.LineShape"/><path stroke="#000" d="M12200 13900l1000 3000" fill="none" class="com.sun.star.drawing.LineShape"/><path stroke="#000" d="M16200 13900l-3000 3000" fill="none" class="com.sun.star.drawing.LineShape"/><g class="com.sun.star.drawing.OpenBezierShape"><path stroke="#00f" d="M1700 15900c0-1500 165-2476 1018-2670" fill="none"/><path fill="#00f" d="M2728 13316l-15 24 287-140-310-73 18 19 16 25 12 27 6 30 1 30-5 30-10 28z"/></g><g class="com.sun.star.drawing.CustomShape"><path fill="#729fcf" d="M1700 16500h-1100v-600h2200v600h-1100z"/><path stroke="#3465af" d="M1700 16500h-1100v-600h2200v600h-1100z" fill="none"/><text class="TextShape"><tspan class="TextParagraph" font-family="Arial, sans-serif" font-size="423" font-weight="400"><tspan class="TextPosition" x="1135" y="16346"><tspan>app N</tspan></tspan></tspan></text></g><g class="com.sun.star.drawing.OpenBezierShape"><path stroke="#00f" d="M3800 13500c0 3000 783 5509 2024 5861" fill="none"/><path fill="#00f" d="M5807 19443l-20 20 313-63-282-150 13 24 9 27 5 29-1 31-7 30-13 27-17 25z"/></g><g class="com.sun.star.drawing.OpenBezierShape"><path stroke="#00f" d="M8300 19400c1400 0 374-3167 304-5635" fill="none"/><path fill="#00f" d="M8689 13782l23 17-112-299-103 302 22-17 25-13 28-9 31-4 30 2 30 9 26 12z"/></g><g class="com.sun.star.drawing.OpenBezierShape"><path stroke="#00f" d="M8301 19400c1400 0 3349-3160 3491-5628" fill="none"/><path fill="#00f" d="M11876 13786l22 18-98-304-117 297 22-16 27-12 28-8 31-2 30 4 29 9 26 14z"/></g><g class="com.sun.star.drawing.OpenBezierShape"><path stroke="#00f" d="M8301 19400c1400 0 4254-3618 7273-5744" fill="none"/><path fill="#00f" d="M15615 13731l-1 28 186-259-308 82 25 9 26 14 23 18 20 23 15 27 10 29 4 29z"/></g></g></svg>